<?xml version="1.0" encoding="UTF-8"?>
<svg id="Layer_1" xmlns="http://www.w3.org/2000/svg" viewBox="118.58 121.2 567.04 567.04">
	<defs>
		<style>.cls-1{stroke-dasharray:0 0 10.1 10.1;}.cls-1,.cls-2,.cls-3,.cls-4,.cls-5,.cls-6{fill:none;stroke:#231f20;stroke-miterlimit:10;}.cls-7{fill:#004f00;}.cls-8{fill:#ed337f;}.cls-9{fill:#ccc;}.cls-10{fill:#42a542;}.cls-2{stroke-dasharray:0 0 8.85 8.85;}.cls-3{stroke-dasharray:0 0 10.73 10.73;}.cls-4{stroke-dasharray:0 0 10 10;}.cls-5{stroke-dasharray:0 0 5.4 5.4;}</style>
	</defs>
	<path d="M523.89,442.26c3.05-9.42,4.77-19.39,5.41-29.64h0s2.5-41.45,8.29-68.51l-13.68,13.68v-66.64s-47.06,0-47.06,0l33.12-33.12c-5.03,2.37-8.97,3.99-11.28,4.51-10.85,2.44-37.37,4.67-65.17,7.95l-90.93,91.31c16.37-13.15,37.15-21.03,59.78-21.03,52.75,0,95.51,42.76,95.51,95.51,0,7.49,6.07,13.56,13.56,13.56,5.18,0,10.82-2.57,12.44-7.58Z"/>
	<circle class="cls-10" cx="445.6" cy="312.65" r="22.48"/>
	<path class="cls-9" d="M280.27,440.37h.03c1.71,5.52,6.87,9.53,12.96,9.53,7.49,0,13.56-6.07,13.56-13.56,0-52.75,42.76-95.51,95.51-95.51s95.51,42.76,95.51,95.51c0,7.49,6.07,13.56,13.56,13.56,5.18,0,9.68-2.9,11.97-7.17l.08,.05c-4.68,12.06-22.78,60.32-18.21,75.07,9.6,30.97,75.19,52.93,129.91,48.21-51.17,73.81-136.49,122.17-233.11,122.17-53.4,0-103.34-14.77-145.98-40.44,.21-.23,54.44-60.45,53.23-89.28-.69-16.41-23.47-98.4-29.02-118.14Z"/>
	<path class="cls-8" d="M279.08,436.6s-3.93-20.63-3.93-31.47c0-58.57,39.6-107.89,93.49-122.66,16.62-5.09,41.15-8.65,64.77-11.44l-.07,.05-93.52,93.52c-3.46,3-6.7,6.24-9.7,9.7h0s0,0,0,0c-14.51,16.75-23.29,38.6-23.29,62.51,0,7.49-6.07,13.56-13.56,13.56-6.09,0-11.25-4.02-12.96-9.55l-1.22-4.22Z"/>
	<path class="cls-10" d="M416.05,687.89c.2,0,.39-.02,.59-.03,38.95-1.98,75.82-11.82,109.07-27.96,2.11-9.2,3.23-18.77,3.23-28.61,0-70.24-56.94-127.18-127.18-127.18-37.43,0-71.08,16.17-94.35,41.9,.39,1.98,.73,3.81,1.01,5.46,.02,.1,.04,.21,.05,.31,.08,.5,.16,.99,.23,1.45,.02,.11,.03,.21,.05,.31,.06,.37,.11,.73,.16,1.08,.02,.12,.03,.23,.05,.35,.06,.42,.11,.82,.15,1.2,0,.06,.01,.11,.02,.17,.04,.33,.07,.64,.09,.94,0,.09,.02,.19,.02,.28,.03,.34,.05,.66,.06,.95,.02,.5,.02,1.02,0,1.55,0,.17-.02,.34-.02,.51-.02,.36-.04,.73-.07,1.1-.02,.2-.04,.4-.06,.6-.04,.36-.08,.72-.13,1.09-.03,.2-.05,.4-.08,.6-.06,.41-.14,.82-.22,1.24-.03,.16-.06,.32-.09,.48-.12,.58-.25,1.16-.39,1.76-.03,.11-.06,.23-.09,.35-.12,.48-.25,.97-.39,1.46-.06,.21-.12,.42-.19,.64-.12,.41-.24,.81-.38,1.23-.07,.23-.15,.46-.23,.69-.14,.41-.28,.83-.43,1.25-.08,.22-.15,.44-.23,.66-.18,.5-.38,1.01-.58,1.52-.05,.13-.1,.27-.15,.4-.25,.64-.52,1.29-.8,1.95-.08,.18-.16,.36-.23,.54-.21,.48-.42,.96-.63,1.45-.11,.24-.22,.48-.33,.71-.2,.44-.41,.88-.61,1.32-.12,.24-.23,.49-.35,.73-.22,.47-.45,.93-.69,1.4-.11,.21-.21,.42-.32,.63-.33,.66-.67,1.32-1.02,1.99,0,.02-.02,.03-.03,.05-.36,.69-.73,1.38-1.11,2.07-.11,.2-.22,.4-.33,.6-.27,.49-.55,.99-.82,1.48-.14,.24-.27,.48-.41,.72-.27,.47-.54,.94-.81,1.41-.14,.23-.27,.47-.41,.7-.31,.53-.62,1.05-.94,1.58-.1,.17-.2,.33-.3,.5-.43,.71-.86,1.41-1.3,2.12-.04,.06-.08,.12-.11,.18-.39,.64-.79,1.27-1.2,1.91-.13,.2-.26,.41-.39,.61-.32,.5-.64,1-.96,1.5-.14,.22-.29,.44-.43,.66-.33,.51-.66,1.01-1,1.51-.13,.19-.25,.38-.38,.57-.41,.62-.82,1.23-1.24,1.85-.05,.07-.09,.14-.14,.21-.48,.71-.97,1.42-1.45,2.12-.05,.08-.11,.16-.16,.23-.42,.61-.84,1.21-1.26,1.81-.12,.16-.23,.33-.35,.49-.37,.52-.74,1.05-1.11,1.57-.12,.17-.24,.34-.36,.5-.4,.55-.79,1.11-1.19,1.66-.08,.11-.16,.22-.23,.32-.99,1.36-1.97,2.7-2.95,4.01-.04,.06-.09,.11-.13,.17-.44,.59-.88,1.17-1.32,1.75-.08,.1-.16,.21-.24,.31-.42,.55-.83,1.09-1.24,1.63-.07,.09-.13,.17-.2,.26-.47,.61-.93,1.22-1.4,1.81h0c-10.13,13.09-18.57,22.46-18.65,22.55,11.37,6.85,23.27,12.91,35.61,18.13,.18,.08,.37,.16,.55,.23,1.04,.44,2.09,.87,3.13,1.3,.23,.09,.46,.19,.7,.28,1.05,.43,2.11,.85,3.17,1.26,.14,.05,.27,.1,.41,.16,3.51,1.36,7.05,2.66,10.63,3.88,.08,.03,.16,.05,.24,.08,1.01,.35,2.03,.68,3.05,1.02,.35,.11,.69,.23,1.04,.34,.95,.31,1.91,.61,2.86,.91,.41,.13,.82,.26,1.23,.38,.94,.29,1.88,.58,2.83,.86,.39,.12,.78,.23,1.17,.34,3.16,.92,6.34,1.79,9.55,2.6,.44,.11,.87,.23,1.31,.33,.85,.21,1.7,.41,2.56,.62,.58,.14,1.16,.28,1.75,.41,.81,.19,1.62,.37,2.44,.55,.63,.14,1.27,.28,1.9,.42,.79,.17,1.58,.34,2.37,.5,.68,.14,1.36,.27,2.05,.41,.75,.15,1.51,.3,2.26,.45,.89,.17,1.78,.33,2.68,.49,1.06,.19,2.13,.38,3.19,.56,.87,.15,1.74,.29,2.61,.43,.67,.11,1.34,.21,2.02,.31,.82,.12,1.64,.25,2.46,.36,.67,.1,1.35,.19,2.03,.28,.84,.11,1.68,.22,2.52,.33,.65,.08,1.3,.16,1.96,.24,.92,.11,1.84,.21,2.76,.31,.57,.06,1.14,.13,1.72,.19,1.42,.15,2.85,.28,4.28,.41,.27,.02,.54,.04,.81,.07,1.29,.11,2.58,.21,3.88,.3,.54,.04,1.07,.07,1.61,.1,1,.06,1.99,.13,2.99,.18,.59,.03,1.18,.06,1.76,.09,.97,.05,1.94,.09,2.92,.13,.58,.02,1.16,.04,1.74,.06,1.04,.03,2.09,.06,3.13,.08,.5,.01,1,.02,1.5,.03,1.54,.02,3.08,.04,4.63,.04,2.22,0,4.43-.03,6.64-.08,.27,0,.55-.01,.82-.02,2.19-.06,4.37-.14,6.54-.25Z"/>
	<path class="cls-9" d="M509.93,258.1c28.92-13.62,94.04-52.26,94.04-52.26,0,0-55.12,110.47-60.33,119.45-2.34,4.02-4.36,10.81-6.08,18.88l-13.68,13.68v-66.64s-47.06,0-47.06,0l33.12-33.12Z"/>
	<rect class="cls-4" x="118.58" y="121.2" width="566.93" height="567.04"/>
</svg>