<?xml version="1.0" standalone="no"?>
<!DOCTYPE svg PUBLIC "-//W3C//DTD SVG 20010904//EN"
 "http://www.w3.org/TR/2001/REC-SVG-20010904/DTD/svg10.dtd">
<svg version="1.0" xmlns="http://www.w3.org/2000/svg"
 width="809.000000pt" height="809.000000pt" viewBox="0 0 809.000000 809.000000"
 preserveAspectRatio="xMidYMid meet">
<metadata>
Created by potrace 1.14, written by Peter Selinger 2001-2017
</metadata>
<g transform="translate(0.000000,809.000000) scale(0.100000,-0.100000)"
fill="#000000" stroke="none">
<path d="M4058 8083 c7 -3 16 -2 19 1 4 3 -2 6 -13 5 -11 0 -14 -3 -6 -6z"/>
<path d="M4270 8083 c0 -11 18 -20 59 -28 12 -2 19 0 16 6 -4 5 -16 9 -29 9
-12 0 -27 5 -34 12 -9 9 -12 9 -12 1z"/>
<path d="M3890 8053 l-35 -14 34 6 c34 5 49 12 40 18 -2 2 -20 -3 -39 -10z"/>
<path d="M4460 7983 c14 -9 31 -23 38 -30 7 -7 16 -13 20 -13 4 0 -7 14 -25
30 -18 17 -38 30 -45 30 -7 0 -1 -8 12 -17z"/>
<path d="M3720 7965 c-23 -17 -28 -25 -17 -25 9 0 17 3 17 8 0 4 12 15 28 24
15 10 22 18 16 18 -5 0 -25 -11 -44 -25z"/>
<path d="M3598 7846 c-29 -31 -47 -56 -40 -56 7 0 16 9 51 53 16 20 8 23 -11
3z"/>
<path d="M4575 7835 c4 -11 9 -32 12 -47 3 -16 9 -28 14 -28 12 0 10 9 -12 55
-11 22 -17 31 -14 20z"/>
<path d="M3480 7646 c-15 -42 -11 -55 6 -17 8 19 12 36 9 39 -2 3 -9 -7 -15
-22z"/>
<path d="M4609 7628 c-1 -13 -3 -33 -4 -45 -1 -13 1 -23 4 -23 4 0 8 20 9 45
1 25 -1 45 -3 45 -3 0 -6 -10 -6 -22z"/>
<path d="M3437 7493 c-4 -3 -7 -13 -7 -21 0 -18 13 -7 16 13 2 17 1 18 -9 8z"/>
<path d="M3427 7430 c-3 -11 -2 -22 2 -24 4 -3 8 6 9 20 2 29 -4 31 -11 4z"/>
<path d="M4575 7431 c-4 -13 -15 -21 -28 -21 -17 0 -19 -2 -8 -9 20 -13 38 -4
45 22 7 28 0 35 -9 8z"/>
<path d="M3671 7376 c1 -24 3 -26 6 -8 2 12 9 22 14 22 5 0 9 4 9 8 0 5 -7 9
-15 9 -10 0 -15 -10 -14 -31z"/>
<path d="M3838 7403 c12 -2 32 -2 45 0 12 2 2 4 -23 4 -25 0 -35 -2 -22 -4z"/>
<path d="M3990 7406 c0 -2 14 -6 30 -8 17 -3 30 -1 30 4 0 4 -13 8 -30 8 -16
0 -30 -2 -30 -4z"/>
<path d="M4193 7403 c15 -2 37 -2 50 0 12 2 0 4 -28 4 -27 0 -38 -2 -22 -4z"/>
<path d="M4350 7406 c0 -2 7 -6 15 -10 8 -3 15 -1 15 4 0 6 -7 10 -15 10 -8 0
-15 -2 -15 -4z"/>
<path d="M4390 7401 c0 -5 9 -7 20 -4 11 3 20 7 20 9 0 2 -9 4 -20 4 -11 0
-20 -4 -20 -9z"/>
<path d="M3425 7291 c-3 -5 -2 -12 3 -15 5 -3 9 1 9 9 0 17 -3 19 -12 6z"/>
<path d="M3430 7248 c0 -7 5 -20 10 -28 8 -11 9 -9 8 13 -2 26 -18 40 -18 15z"/>
<path d="M4274 7249 c-18 -5 -35 -17 -38 -26 -6 -16 -6 -16 12 0 10 9 28 17
40 17 12 0 22 5 22 10 0 6 -1 10 -2 9 -2 0 -17 -5 -34 -10z"/>
<path d="M4379 7249 c-10 -6 -7 -9 14 -9 29 0 35 5 14 13 -8 3 -20 1 -28 -4z"/>
<path d="M4495 7250 c-4 -6 -1 -10 5 -10 8 0 8 -6 0 -20 -15 -28 -6 -25 13 4
14 21 14 25 2 30 -8 3 -17 1 -20 -4z"/>
<path d="M3698 7222 c11 -27 41 -66 47 -61 2 3 -4 15 -15 27 -11 12 -20 28
-20 37 0 8 -4 15 -10 15 -5 0 -6 -8 -2 -18z"/>
<path d="M4101 7119 c-24 -11 -41 -22 -38 -25 5 -6 87 33 87 41 0 6 3 7 -49
-16z"/>
<path d="M4420 7105 c0 -8 2 -15 4 -15 2 0 6 7 10 15 3 8 1 15 -4 15 -6 0 -10
-7 -10 -15z"/>
<path d="M3496 7082 c20 -35 44 -61 44 -46 -1 5 -15 25 -32 44 l-31 35 19 -33z"/>
<path d="M3842 7095 c8 -8 68 -15 68 -8 0 5 -16 9 -36 10 -20 1 -35 0 -32 -2z"/>
<path d="M4385 7070 c-10 -11 -15 -20 -11 -20 11 0 39 30 34 36 -3 2 -13 -5
-23 -16z"/>
<path d="M4240 6965 c-25 -14 -39 -25 -31 -25 14 0 81 38 81 46 0 6 0 6 -50
-21z"/>
<path d="M3640 6945 c0 -6 56 -35 67 -35 4 0 -7 9 -25 20 -33 20 -42 24 -42
15z"/>
<path d="M4088 6905 c-2 -3 -19 -7 -36 -9 -18 -2 -37 -7 -44 -12 -14 -10 -53
-10 -140 1 -46 6 -58 4 -58 -6 0 -8 -11 -14 -27 -15 -44 -1 -153 -15 -208 -26
-27 -5 -63 -11 -80 -14 -39 -5 -272 -64 -305 -77 -8 -3 -46 -15 -85 -28 -38
-12 -93 -33 -122 -45 -28 -13 -55 -24 -58 -24 -14 0 -220 -104 -227 -114 -4
-6 -8 -7 -8 -2 0 5 -8 2 -17 -6 -10 -8 -25 -18 -33 -21 -8 -4 -31 -17 -52 -29
-20 -13 -58 -36 -84 -52 -27 -16 -53 -33 -59 -38 -42 -35 -106 -78 -114 -78
-6 0 -11 -3 -11 -8 0 -4 -24 -26 -54 -49 -158 -124 -354 -324 -481 -493 -27
-36 -53 -66 -57 -68 -4 -2 -8 -8 -8 -12 0 -5 -19 -37 -43 -72 -183 -270 -327
-606 -401 -938 -13 -58 -27 -130 -31 -160 -4 -30 -8 -57 -10 -60 -2 -3 -6 -36
-10 -75 -3 -38 -11 -72 -16 -73 -5 -2 -6 -9 -3 -14 4 -7 2 -8 -4 -4 -6 4 -14
22 -18 41 -3 19 -10 35 -15 35 -4 0 -2 -18 6 -40 8 -22 11 -40 7 -40 -4 0 -2
-4 5 -8 16 -10 26 -109 13 -117 -6 -4 -7 -13 -1 -22 5 -9 5 -29 1 -44 -5 -15
-6 -30 -3 -33 10 -10 11 -176 1 -176 -5 0 -6 -6 -1 -12 4 -7 9 -22 10 -33 4
-29 10 -68 23 -165 7 -47 13 -92 15 -100 18 -131 102 -432 160 -570 44 -108
143 -318 155 -330 3 -3 11 -15 18 -27 29 -54 40 -71 90 -146 28 -44 52 -83 52
-87 0 -5 4 -10 8 -12 4 -1 21 -21 37 -43 83 -112 150 -188 270 -310 97 -97
182 -172 285 -252 86 -65 217 -153 229 -153 5 0 11 -4 13 -9 8 -22 290 -166
443 -226 55 -22 102 -40 105 -40 3 -1 30 -9 60 -19 73 -23 218 -63 255 -69 17
-3 41 -9 55 -12 14 -4 39 -8 57 -10 17 -2 40 -6 50 -9 17 -5 124 -19 150 -19
6 0 9 -6 7 -12 -3 -6 2 -12 10 -12 8 0 13 4 10 8 -2 4 1 11 7 15 8 5 9 3 4 -6
-6 -10 -4 -12 8 -7 10 4 17 2 17 -5 0 -7 4 -7 13 0 8 7 31 9 53 6 21 -3 86 -5
143 -5 57 0 101 -3 97 -6 -4 -4 15 -12 41 -19 61 -16 67 -11 11 9 l-43 15 48
-2 c26 -2 50 0 52 4 2 3 28 7 56 9 29 1 58 5 63 9 6 3 5 -1 -1 -9 -10 -13 -10
-16 2 -16 8 0 15 6 15 14 0 8 12 14 30 14 17 1 33 2 38 3 4 1 32 6 62 10 30 5
64 10 75 13 11 2 29 5 40 7 11 2 34 6 50 10 17 3 39 8 50 11 27 6 137 35 153
40 7 3 14 5 17 5 3 0 24 8 47 16 24 9 50 17 59 19 9 2 37 13 62 24 25 12 51
21 57 21 5 0 18 4 28 10 25 14 211 99 220 101 4 1 19 10 34 20 14 10 29 19 32
19 9 0 178 105 256 159 211 145 445 367 628 597 20 24 154 226 199 299 47 74
143 274 194 400 41 103 109 322 113 365 1 9 5 21 10 28 4 6 5 12 2 12 -2 0 0
15 5 33 5 17 12 48 15 67 3 19 7 40 9 47 2 6 7 38 11 69 3 32 8 65 9 73 2 9 4
26 4 39 1 12 6 22 11 22 6 0 8 -11 4 -25 -4 -18 -2 -25 8 -25 10 0 13 9 10 30
-2 17 -10 30 -18 30 -8 0 -14 8 -13 18 0 10 3 12 6 5 2 -7 9 -13 15 -13 6 0 5
8 -4 18 -16 18 -13 56 4 46 6 -4 6 1 -1 13 -6 11 -9 22 -7 24 2 2 7 28 11 57
5 40 3 52 -7 52 -10 0 -9 3 2 10 8 5 11 10 5 10 -11 0 -14 248 -4 265 4 6 2
19 -2 30 -9 18 -9 18 -5 -3 2 -12 0 -19 -6 -16 -5 3 -8 16 -7 27 1 12 -1 38
-4 57 -4 19 -9 52 -12 73 -11 78 -16 113 -21 129 -5 16 -10 41 -19 88 -2 14
-14 59 -25 100 -11 41 -22 82 -24 91 -6 24 -57 171 -71 204 -54 129 -73 170
-110 245 -87 175 -204 360 -305 483 -97 119 -131 157 -230 256 -58 58 -130
126 -160 151 -30 25 -57 47 -60 50 -3 3 -26 21 -52 40 -27 18 -48 37 -48 42 0
4 -5 8 -10 8 -10 0 -69 38 -80 51 -23 28 -321 191 -480 262 -54 24 -280 106
-310 112 -8 2 -44 11 -80 20 -36 9 -74 19 -85 21 -11 2 -31 6 -45 9 -66 15
-241 43 -280 46 -25 2 -48 7 -52 13 -9 14 -38 16 -38 3 0 -8 -3 -8 -8 -2 -9
12 -42 16 -42 4 0 -4 -24 -6 -52 -3 -29 3 -62 5 -73 5 -18 0 -17 2 5 14 14 8
20 14 14 15 -6 0 -13 -2 -16 -5z"/>
<path d="M1206 6874 c-3 -9 -5 -30 -5 -47 2 -29 2 -28 8 8 5 35 9 40 31 38 23
-2 23 -2 5 6 -28 13 -32 13 -39 -5z"/>
<path d="M1270 6882 c0 -5 7 -9 15 -9 8 0 12 4 9 9 -3 4 -9 8 -15 8 -5 0 -9
-4 -9 -8z"/>
<path d="M1420 6880 c0 -5 5 -10 11 -10 5 0 7 5 4 10 -3 6 -8 10 -11 10 -2 0
-4 -4 -4 -10z"/>
<path d="M1450 6882 c0 -4 12 -8 28 -9 23 -1 24 -1 7 7 -26 11 -35 12 -35 2z"/>
<path d="M1623 6879 c-11 -5 -2 -7 25 -7 24 1 45 4 46 7 6 9 -49 8 -71 0z"/>
<path d="M1845 6880 l-40 -7 48 -2 c30 0 46 3 42 9 -3 6 -7 9 -8 9 -1 -1 -20
-5 -42 -9z"/>
<path d="M2015 6880 c-3 -5 -1 -10 4 -10 6 0 11 5 11 10 0 6 -2 10 -4 10 -3 0
-8 -4 -11 -10z"/>
<path d="M2040 6880 c0 -4 14 -7 31 -8 17 0 28 2 25 6 -9 9 -56 11 -56 2z"/>
<path d="M2215 6880 c-3 -4 11 -8 31 -8 40 0 41 5 1 12 -14 2 -29 1 -32 -4z"/>
<path d="M2416 6879 c2 -4 22 -7 44 -6 21 1 37 4 34 6 -8 8 -83 8 -78 0z"/>
<path d="M2615 6880 c-3 -5 -1 -10 4 -10 6 0 11 5 11 10 0 6 -2 10 -4 10 -3 0
-8 -4 -11 -10z"/>
<path d="M2660 6880 c0 -5 9 -8 20 -7 21 1 18 10 -5 13 -8 1 -15 -2 -15 -6z"/>
<path d="M2815 6880 c-2 -4 16 -8 42 -8 25 -1 44 0 42 2 -9 8 -79 13 -84 6z"/>
<path d="M3010 6881 c0 -5 11 -8 25 -8 30 0 28 6 -4 12 -11 2 -21 0 -21 -4z"/>
<path d="M3070 6882 c0 -5 7 -9 15 -9 8 0 12 4 9 9 -3 4 -9 8 -15 8 -5 0 -9
-4 -9 -8z"/>
<path d="M3215 6880 c-2 -4 16 -8 42 -8 25 -1 44 0 42 2 -9 8 -79 13 -84 6z"/>
<path d="M3410 6879 c0 -5 11 -9 25 -9 14 0 25 2 25 4 0 2 -11 6 -25 8 -14 3
-25 1 -25 -3z"/>
<path d="M3470 6879 c0 -5 9 -9 20 -9 11 0 20 2 20 4 0 2 -9 6 -20 9 -11 3
-20 1 -20 -4z"/>
<path d="M3614 6879 c-3 -5 18 -8 46 -8 28 1 49 4 46 6 -8 9 -87 10 -92 2z"/>
<path d="M4415 6880 c-3 -5 -1 -10 4 -10 6 0 11 5 11 10 0 6 -2 10 -4 10 -3 0
-8 -4 -11 -10z"/>
<path d="M4440 6881 c0 -4 16 -8 36 -9 20 -1 35 0 33 2 -8 8 -69 14 -69 7z"/>
<path d="M4613 6878 c-2 -5 10 -8 26 -8 17 0 31 3 31 8 0 4 -12 7 -26 7 -14 0
-28 -3 -31 -7z"/>
<path d="M4680 6880 c0 -5 5 -10 11 -10 5 0 7 5 4 10 -3 6 -8 10 -11 10 -2 0
-4 -4 -4 -10z"/>
<path d="M4816 6879 c2 -4 22 -7 44 -6 21 1 37 4 34 6 -8 8 -83 8 -78 0z"/>
<path d="M5020 6880 c0 -5 5 -10 11 -10 5 0 7 5 4 10 -3 6 -8 10 -11 10 -2 0
-4 -4 -4 -10z"/>
<path d="M5050 6882 c0 -4 12 -8 28 -9 23 -1 24 -1 7 7 -26 11 -35 12 -35 2z"/>
<path d="M5225 6880 c-19 -8 -19 -9 3 -9 12 -1 22 4 22 9 0 6 -1 10 -2 9 -2 0
-12 -4 -23 -9z"/>
<path d="M5260 6880 c0 -5 5 -10 11 -10 5 0 7 5 4 10 -3 6 -8 10 -11 10 -2 0
-4 -4 -4 -10z"/>
<path d="M5445 6880 l-40 -7 48 -2 c30 0 46 3 42 9 -3 6 -7 9 -8 9 -1 -1 -20
-5 -42 -9z"/>
<path d="M5615 6880 c-3 -5 -1 -10 4 -10 6 0 11 5 11 10 0 6 -2 10 -4 10 -3 0
-8 -4 -11 -10z"/>
<path d="M5640 6880 c0 -4 14 -7 31 -8 17 0 28 2 25 6 -9 9 -56 11 -56 2z"/>
<path d="M5810 6880 c0 -5 16 -8 36 -8 19 0 34 2 31 4 -8 8 -67 11 -67 4z"/>
<path d="M6025 6880 c-19 -8 -19 -9 3 -9 12 -1 22 4 22 9 0 6 -1 10 -2 9 -2 0
-12 -4 -23 -9z"/>
<path d="M6060 6880 c0 -5 9 -8 20 -7 21 1 18 10 -5 13 -8 1 -15 -2 -15 -6z"/>
<path d="M6220 6880 c0 -5 5 -10 11 -10 5 0 7 5 4 10 -3 6 -8 10 -11 10 -2 0
-4 -4 -4 -10z"/>
<path d="M6250 6882 c0 -4 12 -8 28 -9 23 -1 24 -1 7 7 -26 11 -35 12 -35 2z"/>
<path d="M6415 6880 c-2 -4 16 -8 42 -8 25 -1 44 0 42 2 -9 8 -79 13 -84 6z"/>
<path d="M6615 6880 c-3 -5 -1 -10 4 -10 6 0 11 5 11 10 0 6 -2 10 -4 10 -3 0
-8 -4 -11 -10z"/>
<path d="M6660 6880 c0 -5 9 -8 20 -7 21 1 18 10 -5 13 -8 1 -15 -2 -15 -6z"/>
<path d="M6813 6878 c-4 -7 2 -9 16 -5 12 3 28 -1 36 -10 13 -13 15 -13 15 1
0 9 -6 16 -12 17 -7 0 -21 2 -30 4 -10 2 -21 -2 -25 -7z"/>
<path d="M6871 6693 c-1 -24 1 -43 3 -43 8 0 12 48 5 66 -5 13 -8 7 -8 -23z"/>
<path d="M1202 6675 c0 -16 2 -22 5 -12 2 9 2 23 0 30 -3 6 -5 -1 -5 -18z"/>
<path d="M1202 6620 c0 -14 2 -19 5 -12 2 6 2 18 0 25 -3 6 -5 1 -5 -13z"/>
<path d="M6872 6525 c0 -16 2 -22 5 -12 2 9 2 23 0 30 -3 6 -5 -1 -5 -18z"/>
<path d="M1197 6480 c-3 -11 -1 -23 4 -26 5 -3 9 6 9 20 0 31 -6 34 -13 6z"/>
<path d="M6872 6470 c0 -14 2 -19 5 -12 2 6 2 18 0 25 -3 6 -5 1 -5 -13z"/>
<path d="M1200 6430 c0 -5 5 -10 11 -10 5 0 7 5 4 10 -3 6 -8 10 -11 10 -2 0
-4 -4 -4 -10z"/>
<path d="M6871 6297 c1 -26 5 -45 8 -42 6 7 2 77 -5 84 -2 3 -4 -16 -3 -42z"/>
<path d="M1198 6256 c-3 -14 -1 -31 3 -38 6 -8 9 1 9 25 0 42 -6 48 -12 13z"/>
<path d="M6871 6134 c0 -11 3 -14 6 -6 3 7 2 16 -1 19 -3 4 -6 -2 -5 -13z"/>
<path d="M6870 6081 c0 -17 2 -31 4 -31 8 0 13 51 5 56 -5 3 -9 -9 -9 -25z"/>
<path d="M1198 6082 c-3 -9 -1 -26 3 -37 6 -15 8 -11 8 18 1 40 -4 48 -11 19z"/>
<path d="M6867 5920 c-3 -11 -1 -22 3 -25 4 -3 6 -15 4 -28 -4 -20 -4 -20 5
-2 4 11 6 25 2 30 -3 6 -4 18 -3 28 4 24 -4 22 -11 -3z"/>
<path d="M1200 5850 c0 -16 4 -30 8 -30 5 0 7 14 4 30 -2 17 -6 30 -8 30 -2 0
-4 -13 -4 -30z"/>
<path d="M6870 5710 c0 -11 4 -20 9 -20 5 0 7 9 4 20 -3 11 -7 20 -9 20 -2 0
-4 -9 -4 -20z"/>
<path d="M1202 5675 c0 -16 2 -22 5 -12 2 9 2 23 0 30 -3 6 -5 -1 -5 -18z"/>
<path d="M6871 5664 c0 -11 3 -14 6 -6 3 7 2 16 -1 19 -3 4 -6 -2 -5 -13z"/>
<path d="M1197 5620 c3 -11 7 -20 9 -20 2 0 4 9 4 20 0 11 -4 20 -9 20 -5 0
-7 -9 -4 -20z"/>
<path d="M6872 5530 c0 -14 2 -19 5 -12 2 6 2 18 0 25 -3 6 -5 1 -5 -13z"/>
<path d="M1202 5475 c0 -16 2 -22 5 -12 2 9 2 23 0 30 -3 6 -5 -1 -5 -18z"/>
<path d="M6870 5464 c0 -8 5 -12 10 -9 6 4 8 11 5 16 -9 14 -15 11 -15 -7z"/>
<path d="M1197 5425 c-4 -8 -2 -17 3 -20 6 -4 10 3 10 14 0 25 -6 27 -13 6z"/>
<path d="M6865 5320 c3 -5 8 -10 11 -10 2 0 4 5 4 10 0 6 -5 10 -11 10 -5 0
-7 -4 -4 -10z"/>
<path d="M1197 5287 c-3 -8 -1 -20 4 -28 6 -10 9 -7 9 14 0 29 -5 35 -13 14z"/>
<path d="M6867 5280 c-3 -11 0 -23 6 -27 7 -3 9 -3 5 2 -4 4 -3 16 3 26 5 11
6 19 1 19 -6 0 -12 -9 -15 -20z"/>
<path d="M1200 5230 c0 -5 5 -10 11 -10 5 0 7 5 4 10 -3 6 -8 10 -11 10 -2 0
-4 -4 -4 -10z"/>
<path d="M6871 5097 c1 -26 5 -45 8 -42 6 7 2 77 -5 84 -2 3 -4 -16 -3 -42z"/>
<path d="M1198 5056 c-3 -14 -1 -31 3 -38 6 -8 9 1 9 25 0 42 -6 48 -12 13z"/>
<path d="M6871 4934 c0 -11 3 -14 6 -6 3 7 2 16 -1 19 -3 4 -6 -2 -5 -13z"/>
<path d="M6870 4891 c0 -25 6 -27 13 -6 4 8 2 17 -3 20 -6 4 -10 -3 -10 -14z"/>
<path d="M1198 4882 c-3 -9 -1 -26 3 -37 6 -15 8 -11 8 18 1 40 -4 48 -11 19z"/>
<path d="M6865 4710 c3 -5 8 -10 11 -10 2 0 4 5 4 10 0 6 -5 10 -11 10 -5 0
-7 -4 -4 -10z"/>
<path d="M1198 4659 c-2 -22 0 -43 4 -45 4 -3 8 15 8 40 0 57 -7 60 -12 5z"/>
<path d="M6870 4671 c0 -25 6 -27 13 -6 4 8 2 17 -3 20 -6 4 -10 -3 -10 -14z"/>
<path d="M655 4599 c-5 -7 84 -4 91 4 3 2 -16 4 -41 4 -25 0 -48 -3 -50 -8z"/>
<path d="M7520 4600 c-18 -5 -11 -7 26 -6 29 0 50 4 47 9 -5 9 -39 8 -73 -3z"/>
<path d="M855 4590 c-3 -5 -1 -10 4 -10 6 0 11 5 11 10 0 6 -2 10 -4 10 -3 0
-8 -4 -11 -10z"/>
<path d="M7716 4592 c-6 -9 74 -35 82 -27 3 2 -9 7 -24 11 -16 4 -34 11 -41
16 -7 5 -13 5 -17 0z"/>
<path d="M884 4579 c-3 -5 -2 -8 3 -7 4 1 18 -2 31 -6 13 -4 26 -6 28 -3 3 3
-9 9 -25 15 -20 7 -33 7 -37 1z"/>
<path d="M483 4565 c-18 -8 -33 -16 -33 -19 0 -6 51 14 65 26 13 11 5 10 -32
-7z"/>
<path d="M7340 4565 c-19 -7 -28 -13 -20 -13 8 0 31 6 50 13 19 7 28 13 20 13
-8 0 -31 -6 -50 -13z"/>
<path d="M6870 4524 c0 -14 4 -23 9 -20 5 3 7 15 4 26 -7 28 -13 25 -13 -6z"/>
<path d="M1050 4505 c0 -4 14 -21 30 -37 17 -15 30 -24 30 -20 0 5 -13 21 -30
37 -16 16 -30 25 -30 20z"/>
<path d="M7920 4481 c19 -16 37 -27 40 -25 5 6 -52 53 -65 54 -5 0 6 -13 25
-29z"/>
<path d="M308 4470 c-18 -16 -30 -30 -26 -30 4 0 13 6 20 13 7 7 24 21 38 30
13 9 19 17 12 17 -6 0 -26 -13 -44 -30z"/>
<path d="M1201 4484 c0 -11 3 -14 6 -6 3 7 2 16 -1 19 -3 4 -6 -2 -5 -13z"/>
<path d="M7173 4479 c-18 -12 -33 -26 -33 -32 0 -6 10 -1 23 10 12 11 31 25
42 31 11 6 16 11 10 12 -5 0 -25 -10 -42 -21z"/>
<path d="M6871 4474 c0 -11 3 -14 6 -6 3 7 2 16 -1 19 -3 4 -6 -2 -5 -13z"/>
<path d="M1197 4420 c3 -11 7 -20 9 -20 2 0 4 9 4 20 0 11 -4 20 -9 20 -5 0
-7 -9 -4 -20z"/>
<path d="M194 4366 c-23 -25 -46 -67 -40 -73 3 -3 6 -1 6 5 0 6 12 25 26 42
25 29 32 52 8 26z"/>
<path d="M7026 4337 c-35 -45 -33 -57 1 -15 15 18 32 36 38 40 6 5 6 8 -2 8
-7 0 -23 -15 -37 -33z"/>
<path d="M8022 4340 c0 -14 2 -19 5 -12 2 6 2 18 0 25 -3 6 -5 1 -5 -13z"/>
<path d="M8030 4300 c0 -5 5 -10 10 -10 6 0 10 5 10 10 0 6 -4 10 -10 10 -5 0
-10 -4 -10 -10z"/>
<path d="M75 4163 c-9 -20 -14 -40 -13 -45 2 -5 11 11 20 37 20 54 15 61 -7 8z"/>
<path d="M6935 4183 c-5 -10 -9 -22 -11 -28 -1 -5 -5 -19 -10 -30 -12 -33 2
-13 24 33 11 23 17 42 12 42 -4 0 -11 -8 -15 -17z"/>
<path d="M8052 4095 c0 -16 2 -22 5 -12 2 9 2 23 0 30 -3 6 -5 -1 -5 -18z"/>
<path d="M26 3994 c-8 -21 -8 -34 2 -34 4 0 8 11 8 25 2 29 -1 32 -10 9z"/>
<path d="M1167 3941 c-2 -11 -15 -21 -28 -24 -23 -4 -22 -4 3 -6 19 -1 29 5
33 20 4 11 5 23 2 25 -2 3 -7 -4 -10 -15z"/>
<path d="M8025 3941 c-3 -12 -16 -21 -33 -23 -26 -3 -26 -3 -4 -10 17 -5 26
-1 39 18 8 14 13 27 10 30 -3 3 -8 -4 -12 -15z"/>
<path d="M21 3934 c0 -11 3 -14 6 -6 3 7 2 16 -1 19 -3 4 -6 -2 -5 -13z"/>
<path d="M264 3906 c-3 -8 -4 -23 -2 -33 3 -11 6 -6 9 15 6 34 2 42 -7 18z"/>
<path d="M290 3910 c0 -5 7 -7 15 -4 8 4 15 8 15 10 0 2 -7 4 -15 4 -8 0 -15
-4 -15 -10z"/>
<path d="M433 3913 c15 -2 37 -2 50 0 12 2 0 4 -28 4 -27 0 -38 -2 -22 -4z"/>
<path d="M604 3911 c18 -7 66 -3 66 5 0 2 -19 4 -42 3 -31 0 -37 -3 -24 -8z"/>
<path d="M770 3912 c0 -4 18 -6 40 -4 22 2 40 6 40 8 0 2 -18 4 -40 4 -22 0
-40 -3 -40 -8z"/>
<path d="M940 3916 c0 -2 18 -6 40 -8 22 -2 40 0 40 4 0 5 -18 8 -40 8 -22 0
-40 -2 -40 -4z"/>
<path d="M7120 3916 c0 -10 28 -13 41 -5 10 6 7 9 -13 9 -16 0 -28 -2 -28 -4z"/>
<path d="M7283 3913 c15 -2 37 -2 50 0 12 2 0 4 -28 4 -27 0 -38 -2 -22 -4z"/>
<path d="M7440 3916 c0 -8 71 -12 76 -4 3 4 -13 8 -35 8 -23 0 -41 -2 -41 -4z"/>
<path d="M7618 3913 c7 -3 16 -2 19 1 4 3 -2 6 -13 5 -11 0 -14 -3 -6 -6z"/>
<path d="M7650 3912 c0 -10 36 -9 46 1 4 4 -5 7 -19 7 -15 0 -27 -4 -27 -8z"/>
<path d="M7803 3913 c9 -2 23 -2 30 0 6 3 -1 5 -18 5 -16 0 -22 -2 -12 -5z"/>
<path d="M7850 3910 c0 -5 7 -7 15 -4 8 4 15 8 15 10 0 2 -7 4 -15 4 -8 0 -15
-4 -15 -10z"/>
<path d="M24 3771 c3 -24 10 -49 17 -55 9 -8 10 -8 5 1 -4 7 -11 32 -16 55
l-9 43 3 -44z"/>
<path d="M840 3750 c-11 -9 -20 -21 -20 -25 0 -5 9 0 21 11 12 10 30 18 40 16
25 -4 24 4 -1 11 -11 3 -28 -3 -40 -13z"/>
<path d="M1070 3760 c-13 -8 -12 -10 3 -10 9 0 17 5 17 10 0 12 -1 12 -20 0z"/>
<path d="M1098 3745 c-6 -30 -2 -32 12 -6 6 11 6 22 1 25 -5 3 -11 -5 -13 -19z"/>
<path d="M7816 3762 c-3 -5 1 -9 9 -9 8 0 12 4 9 9 -3 4 -7 8 -9 8 -2 0 -6 -4
-9 -8z"/>
<path d="M7940 3759 l-25 -7 24 -1 c20 -1 21 -3 11 -16 -8 -9 -8 -15 -2 -15
10 0 28 38 20 44 -1 2 -14 -1 -28 -5z"/>
<path d="M280 3757 c0 -11 49 -87 56 -87 6 0 -8 24 -43 75 -7 11 -13 16 -13
12z"/>
<path d="M973 3753 c9 -2 23 -2 30 0 6 3 -1 5 -18 5 -16 0 -22 -2 -12 -5z"/>
<path d="M7152 3720 c12 -21 27 -41 34 -44 7 -3 -1 15 -17 40 -38 55 -45 57
-17 4z"/>
<path d="M7693 3745 c-19 -21 -16 -30 5 -12 9 8 28 17 42 20 22 4 22 4 -5 5
-16 1 -36 -5 -42 -13z"/>
<path d="M6871 3694 c0 -11 3 -14 6 -6 3 7 2 16 -1 19 -3 4 -6 -2 -5 -13z"/>
<path d="M1196 3692 c-2 -4 -1 -14 5 -22 7 -12 9 -10 9 8 0 23 -5 28 -14 14z"/>
<path d="M6870 3660 c0 -5 5 -10 11 -10 5 0 7 5 4 10 -3 6 -8 10 -11 10 -2 0
-4 -4 -4 -10z"/>
<path d="M680 3623 c-25 -13 -34 -21 -20 -17 30 8 80 33 80 39 0 8 -13 3 -60
-22z"/>
<path d="M7548 3631 c-56 -26 -58 -33 -5 -15 26 9 47 20 47 25 0 5 -1 9 -2 8
-2 0 -20 -8 -40 -18z"/>
<path d="M997 3602 c-38 -39 -34 -49 5 -12 17 17 29 32 26 35 -2 3 -17 -8 -31
-23z"/>
<path d="M7850 3600 c-18 -17 -31 -33 -28 -35 2 -3 20 11 38 30 42 43 34 46
-10 5z"/>
<path d="M80 3615 c0 -14 41 -75 51 -75 6 0 -2 17 -18 38 -15 20 -28 39 -30
41 -2 2 -3 1 -3 -4z"/>
<path d="M450 3610 c0 -5 7 -11 15 -11 23 -2 29 -4 42 -12 6 -4 14 -3 18 3 3
5 -1 10 -9 10 -24 0 -30 1 -48 11 -12 6 -18 6 -18 -1z"/>
<path d="M1200 3609 c0 -5 5 -7 10 -4 6 3 10 8 10 11 0 2 -4 4 -10 4 -5 0 -10
-5 -10 -11z"/>
<path d="M6930 3613 c0 -10 59 -81 60 -72 0 3 -13 23 -30 44 -16 21 -30 34
-30 28z"/>
<path d="M7320 3600 c8 -5 28 -10 44 -10 39 0 30 6 -19 13 -27 4 -35 3 -25 -3z"/>
<path d="M6865 3510 c3 -5 8 -10 11 -10 2 0 4 5 4 10 0 6 -5 10 -11 10 -5 0
-7 -4 -4 -10z"/>
<path d="M838 3479 c-41 -21 -52 -34 -15 -19 12 6 30 13 40 16 9 4 17 10 17
15 0 11 2 12 -42 -12z"/>
<path d="M1200 3490 c0 -5 5 -10 11 -10 5 0 7 5 4 10 -3 6 -8 10 -11 10 -2 0
-4 -4 -4 -10z"/>
<path d="M7692 3479 c-18 -12 -31 -23 -29 -26 3 -2 22 7 42 22 45 30 34 34
-13 4z"/>
<path d="M6870 3471 c0 -25 6 -27 13 -6 4 8 2 17 -3 20 -6 4 -10 -3 -10 -14z"/>
<path d="M7070 3473 c0 -10 31 -30 66 -43 17 -7 23 -7 19 0 -3 6 -11 10 -17
10 -5 0 -23 9 -39 21 -16 11 -29 17 -29 12z"/>
<path d="M220 3466 c0 -3 18 -15 40 -26 22 -11 40 -17 40 -12 0 4 -15 14 -32
22 -18 7 -36 15 -40 18 -5 2 -8 1 -8 -2z"/>
<path d="M1197 3455 c-4 -8 -2 -17 3 -20 6 -4 10 3 10 14 0 25 -6 27 -13 6z"/>
<path d="M654 3408 c-7 -11 18 -10 36 2 11 7 10 9 -8 7 -13 -1 -26 -5 -28 -9z"/>
<path d="M7505 3410 c-11 -4 -26 -5 -32 -3 -7 3 -13 1 -13 -5 0 -11 70 -5 83
7 10 10 -13 10 -38 1z"/>
<path d="M409 3397 c5 -5 19 -7 32 -5 20 3 19 5 -9 9 -20 3 -29 2 -23 -4z"/>
<path d="M605 3399 c-3 -4 2 -6 10 -5 21 3 28 13 10 13 -9 0 -18 -4 -20 -8z"/>
<path d="M7256 3402 c-2 -4 10 -9 27 -10 18 -1 40 -5 50 -8 9 -3 17 -1 17 3 0
5 -16 10 -37 11 -20 2 -40 5 -44 8 -4 2 -10 1 -13 -4z"/>
<path d="M470 3392 c0 -5 7 -9 15 -9 8 0 12 4 9 9 -3 4 -9 8 -15 8 -5 0 -9 -4
-9 -8z"/>
<path d="M6871 3334 c0 -11 3 -14 6 -6 3 7 2 16 -1 19 -3 4 -6 -2 -5 -13z"/>
<path d="M6870 3294 c0 -8 5 -12 10 -9 6 4 8 11 5 16 -9 14 -15 11 -15 -7z"/>
<path d="M1197 3280 c-3 -12 0 -20 8 -20 8 0 11 8 8 20 -3 11 -7 20 -8 20 -1
0 -5 -9 -8 -20z"/>
<path d="M6870 3260 c0 -5 5 -10 11 -10 5 0 7 5 4 10 -3 6 -8 10 -11 10 -2 0
-4 -4 -4 -10z"/>
<path d="M1202 3230 c0 -14 2 -19 5 -12 2 6 2 18 0 25 -3 6 -5 1 -5 -13z"/>
<path d="M6874 3123 c1 -18 -2 -34 -8 -36 -6 -2 -6 -6 1 -10 15 -10 21 13 12
48 l-8 30 3 -32z"/>
<path d="M1202 3080 c0 -19 2 -27 5 -17 2 9 2 25 0 35 -3 9 -5 1 -5 -18z"/>
<path d="M1202 3020 c0 -14 2 -19 5 -12 2 6 2 18 0 25 -3 6 -5 1 -5 -13z"/>
<path d="M6870 2903 c0 -21 3 -24 9 -14 5 8 7 20 4 28 -8 21 -13 15 -13 -14z"/>
<path d="M1197 2887 c-3 -8 -1 -20 4 -28 6 -10 9 -7 9 14 0 29 -5 35 -13 14z"/>
<path d="M1200 2830 c0 -5 5 -10 11 -10 5 0 7 5 4 10 -3 6 -8 10 -11 10 -2 0
-4 -4 -4 -10z"/>
<path d="M6871 2734 c0 -11 3 -14 6 -6 3 7 2 16 -1 19 -3 4 -6 -2 -5 -13z"/>
<path d="M6870 2681 c0 -17 2 -31 4 -31 8 0 13 51 5 56 -5 3 -9 -9 -9 -25z"/>
<path d="M1200 2685 c0 -8 2 -15 4 -15 2 0 6 7 10 15 3 8 1 15 -4 15 -6 0 -10
-7 -10 -15z"/>
<path d="M1197 2653 c-3 -5 -1 -17 4 -28 7 -17 8 -17 8 8 1 27 -4 34 -12 20z"/>
<path d="M6870 2525 c0 -14 2 -25 4 -25 2 0 6 11 8 25 3 14 1 25 -3 25 -5 0
-9 -11 -9 -25z"/>
<path d="M1198 2482 c-3 -9 -1 -26 3 -37 6 -15 8 -11 8 18 1 40 -4 48 -11 19z"/>
<path d="M6870 2460 c0 -5 5 -10 11 -10 5 0 7 5 4 10 -3 6 -8 10 -11 10 -2 0
-4 -4 -4 -10z"/>
<path d="M6872 2325 c0 -16 2 -22 5 -12 2 9 2 23 0 30 -3 6 -5 -1 -5 -18z"/>
<path d="M1198 2259 c-2 -22 0 -43 4 -45 4 -3 8 15 8 40 0 57 -7 60 -12 5z"/>
<path d="M6865 2280 c3 -5 11 -10 16 -10 6 0 7 5 4 10 -3 6 -11 10 -16 10 -6
0 -7 -4 -4 -10z"/>
<path d="M6870 2124 c0 -14 4 -23 9 -20 5 3 7 15 4 26 -7 28 -13 25 -13 -6z"/>
<path d="M1202 2075 c0 -16 2 -22 5 -12 2 9 2 23 0 30 -3 6 -5 -1 -5 -18z"/>
<path d="M6872 2070 c0 -14 2 -19 5 -12 2 6 2 18 0 25 -3 6 -5 1 -5 -13z"/>
<path d="M1197 2020 c3 -11 7 -20 9 -20 2 0 4 9 4 20 0 11 -4 20 -9 20 -5 0
-7 -9 -4 -20z"/>
<path d="M6869 1917 c-3 -21 -1 -41 4 -44 6 -3 7 -1 3 5 -3 5 -3 12 2 14 4 1
5 17 2 33 -6 30 -6 30 -11 -8z"/>
<path d="M1201 1864 c0 -11 3 -14 6 -6 3 7 2 16 -1 19 -3 4 -6 -2 -5 -13z"/>
<path d="M1202 1820 c0 -14 2 -19 5 -12 2 6 2 18 0 25 -3 6 -5 1 -5 -13z"/>
<path d="M6865 1700 c2 -29 10 -33 13 -5 1 14 -2 25 -6 25 -5 0 -8 -9 -7 -20z"/>
<path d="M1195 1690 c-3 -5 1 -10 10 -10 9 0 13 5 10 10 -3 6 -8 10 -10 10 -2
0 -7 -4 -10 -10z"/>
<path d="M1201 1654 c0 -11 3 -14 6 -6 3 7 2 16 -1 19 -3 4 -6 -2 -5 -13z"/>
<path d="M1200 1620 c0 -5 5 -10 11 -10 5 0 7 5 4 10 -3 6 -8 10 -11 10 -2 0
-4 -4 -4 -10z"/>
<path d="M6871 1497 c1 -26 5 -45 8 -42 6 7 2 77 -5 84 -2 3 -4 -16 -3 -42z"/>
<path d="M1198 1462 c-3 -9 -1 -26 3 -37 6 -15 8 -11 8 18 1 40 -4 48 -11 19z"/>
<path d="M6870 1324 c0 -14 4 -23 9 -20 5 3 7 15 4 26 -7 28 -13 25 -13 -6z"/>
<path d="M1198 1282 c-3 -9 -1 -26 3 -37 6 -15 8 -11 8 18 1 40 -4 48 -11 19z"/>
<path d="M6871 1274 c0 -11 3 -14 6 -6 3 7 2 16 -1 19 -3 4 -6 -2 -5 -13z"/>
<path d="M1365 1210 c3 -5 8 -10 11 -10 2 0 4 5 4 10 0 6 -5 10 -11 10 -5 0
-7 -4 -4 -10z"/>
<path d="M1395 1210 c3 -5 8 -10 11 -10 2 0 4 5 4 10 0 6 -5 10 -11 10 -5 0
-7 -4 -4 -10z"/>
<path d="M1525 1210 c3 -5 8 -10 11 -10 2 0 4 5 4 10 0 6 -5 10 -11 10 -5 0
-7 -4 -4 -10z"/>
<path d="M1555 1210 c3 -5 8 -10 11 -10 2 0 4 5 4 10 0 6 -5 10 -11 10 -5 0
-7 -4 -4 -10z"/>
<path d="M1585 1210 c4 -6 11 -8 16 -5 14 9 11 15 -7 15 -8 0 -12 -5 -9 -10z"/>
<path d="M1725 1210 c3 -5 8 -10 11 -10 2 0 4 5 4 10 0 6 -5 10 -11 10 -5 0
-7 -4 -4 -10z"/>
<path d="M1750 1209 c0 -5 5 -7 10 -4 6 3 10 8 10 11 0 2 -4 4 -10 4 -5 0 -10
-5 -10 -11z"/>
<path d="M1780 1210 c0 -5 7 -7 15 -4 8 4 15 8 15 10 0 2 -7 4 -15 4 -8 0 -15
-4 -15 -10z"/>
<path d="M1930 1211 c0 -4 11 -7 25 -7 14 0 25 3 25 7 0 3 -11 7 -25 7 -14 0
-25 -4 -25 -7z"/>
<path d="M1995 1210 c3 -5 8 -10 11 -10 2 0 4 5 4 10 0 6 -5 10 -11 10 -5 0
-7 -4 -4 -10z"/>
<path d="M2125 1210 c3 -5 8 -10 11 -10 2 0 4 5 4 10 0 6 -5 10 -11 10 -5 0
-7 -4 -4 -10z"/>
<path d="M2150 1209 c0 -5 5 -7 10 -4 6 3 10 8 10 11 0 2 -4 4 -10 4 -5 0 -10
-5 -10 -11z"/>
<path d="M2320 1212 c0 -5 7 -9 15 -9 8 0 15 4 15 9 0 4 -7 8 -15 8 -8 0 -15
-4 -15 -8z"/>
<path d="M2380 1210 c0 -5 7 -7 15 -4 8 4 15 8 15 10 0 2 -7 4 -15 4 -8 0 -15
-4 -15 -10z"/>
<path d="M2520 1211 c0 -4 20 -6 45 -6 25 0 45 3 45 6 0 4 -20 7 -45 6 -25 0
-45 -3 -45 -6z"/>
<path d="M2740 1212 c0 -5 7 -9 15 -9 8 0 15 4 15 9 0 4 -7 8 -15 8 -8 0 -15
-4 -15 -8z"/>
<path d="M2785 1210 c4 -6 11 -8 16 -5 14 9 11 15 -7 15 -8 0 -12 -5 -9 -10z"/>
<path d="M2925 1210 c3 -5 8 -10 11 -10 2 0 4 5 4 10 0 6 -5 10 -11 10 -5 0
-7 -4 -4 -10z"/>
<path d="M2955 1210 c3 -5 8 -10 11 -10 2 0 4 5 4 10 0 6 -5 10 -11 10 -5 0
-7 -4 -4 -10z"/>
<path d="M2985 1210 c4 -6 11 -8 16 -5 14 9 11 15 -7 15 -8 0 -12 -5 -9 -10z"/>
<path d="M3126 1211 c9 -9 34 -9 34 -1 0 5 -9 8 -20 7 -10 -1 -17 -3 -14 -6z"/>
<path d="M3170 1211 c0 -5 9 -7 20 -4 11 3 20 7 20 9 0 2 -9 4 -20 4 -11 0
-20 -4 -20 -9z"/>
<path d="M3325 1210 c3 -5 8 -10 11 -10 2 0 4 5 4 10 0 6 -5 10 -11 10 -5 0
-7 -4 -4 -10z"/>
<path d="M3350 1209 c0 -5 5 -7 10 -4 6 3 10 8 10 11 0 2 -4 4 -10 4 -5 0 -10
-5 -10 -11z"/>
<path d="M3380 1210 c0 -5 7 -7 15 -4 8 4 15 8 15 10 0 2 -7 4 -15 4 -8 0 -15
-4 -15 -10z"/>
<path d="M3540 1210 c0 -7 59 -4 67 4 3 2 -12 4 -31 4 -20 0 -36 -3 -36 -8z"/>
<path d="M4385 1210 c4 -6 11 -8 16 -5 14 9 11 15 -7 15 -8 0 -12 -5 -9 -10z"/>
<path d="M4514 1213 c10 -11 36 -12 36 -2 0 5 -10 9 -22 9 -12 0 -18 -3 -14
-7z"/>
<path d="M4585 1210 c4 -6 11 -8 16 -5 14 9 11 15 -7 15 -8 0 -12 -5 -9 -10z"/>
<path d="M4730 1210 c0 -7 68 -5 76 2 2 3 -14 5 -36 5 -22 0 -40 -3 -40 -7z"/>
<path d="M4945 1210 c3 -5 10 -10 16 -10 5 0 9 5 9 10 0 6 -7 10 -16 10 -8 0
-12 -4 -9 -10z"/>
<path d="M4985 1210 c4 -6 11 -8 16 -5 14 9 11 15 -7 15 -8 0 -12 -5 -9 -10z"/>
<path d="M5140 1212 c0 -5 7 -9 15 -9 8 0 15 4 15 9 0 4 -7 8 -15 8 -8 0 -15
-4 -15 -8z"/>
<path d="M5185 1210 c4 -6 11 -8 16 -5 14 9 11 15 -7 15 -8 0 -12 -5 -9 -10z"/>
<path d="M5345 1210 c3 -5 8 -10 11 -10 2 0 4 5 4 10 0 6 -5 10 -11 10 -5 0
-7 -4 -4 -10z"/>
<path d="M5376 1211 c9 -9 34 -9 34 -1 0 5 -9 8 -20 7 -10 -1 -17 -3 -14 -6z"/>
<path d="M5525 1210 c3 -5 8 -10 11 -10 2 0 4 5 4 10 0 6 -5 10 -11 10 -5 0
-7 -4 -4 -10z"/>
<path d="M5550 1209 c0 -4 12 -5 27 -3 39 7 41 13 4 12 -17 -1 -31 -5 -31 -9z"/>
<path d="M5720 1212 c0 -5 7 -9 15 -9 8 0 15 4 15 9 0 4 -7 8 -15 8 -8 0 -15
-4 -15 -8z"/>
<path d="M5785 1210 c4 -6 11 -8 16 -5 14 9 11 15 -7 15 -8 0 -12 -5 -9 -10z"/>
<path d="M5925 1212 c7 -8 85 -9 85 -1 0 4 -20 7 -45 6 -25 0 -43 -3 -40 -5z"/>
<path d="M6130 1210 c0 -8 79 -4 87 3 2 3 -16 5 -41 4 -25 0 -46 -4 -46 -7z"/>
<path d="M6320 1212 c0 -5 7 -9 15 -9 8 0 15 4 15 9 0 4 -7 8 -15 8 -8 0 -15
-4 -15 -8z"/>
<path d="M6380 1210 c0 -5 7 -7 15 -4 8 4 15 8 15 10 0 2 -7 4 -15 4 -8 0 -15
-4 -15 -10z"/>
<path d="M6525 1210 c3 -5 8 -10 11 -10 2 0 4 5 4 10 0 6 -5 10 -11 10 -5 0
-7 -4 -4 -10z"/>
<path d="M6550 1209 c0 -5 5 -7 10 -4 6 3 10 8 10 11 0 2 -4 4 -10 4 -5 0 -10
-5 -10 -11z"/>
<path d="M6580 1210 c0 -5 7 -7 15 -4 8 4 15 8 15 10 0 2 -7 4 -15 4 -8 0 -15
-4 -15 -10z"/>
<path d="M6720 1215 c0 -7 30 -13 34 -7 3 4 -4 9 -15 9 -10 1 -19 0 -19 -2z"/>
<path d="M6770 1209 c0 -5 5 -7 10 -4 6 3 10 8 10 11 0 2 -4 4 -10 4 -5 0 -10
-5 -10 -11z"/>
<path d="M3733 1178 c-13 -6 -23 -15 -23 -20 0 -5 10 -2 23 7 13 8 27 12 30 8
4 -3 7 -1 7 5 0 14 -8 14 -37 0z"/>
<path d="M4290 1127 c0 -9 61 -70 66 -65 2 2 -12 20 -31 38 -19 19 -35 31 -35
27z"/>
<path d="M3572 1090 c-23 -17 -42 -33 -42 -36 0 -5 16 3 35 18 6 4 21 17 35
28 40 31 17 23 -28 -10z"/>
<path d="M3421 945 c-13 -20 -22 -37 -20 -39 2 -2 16 14 31 35 15 21 24 39 20
39 -4 0 -18 -16 -31 -35z"/>
<path d="M4417 949 c4 -13 8 -18 11 -10 2 7 -1 18 -6 23 -8 8 -9 4 -5 -13z"/>
<path d="M4430 913 c0 -4 5 -15 10 -23 8 -13 10 -13 10 2 0 9 -4 20 -10 23 -5
3 -10 3 -10 -2z"/>
<path d="M3332 795 c-6 -14 -8 -25 -3 -25 8 0 23 41 17 47 -1 2 -8 -8 -14 -22z"/>
<path d="M4451 764 c0 -11 3 -14 6 -6 3 7 2 16 -1 19 -3 4 -6 -2 -5 -13z"/>
<path d="M3317 753 c-4 -3 -7 -13 -7 -22 1 -13 3 -13 11 2 11 19 8 33 -4 20z"/>
<path d="M4450 705 c0 -19 2 -35 4 -35 2 0 6 16 8 35 2 19 0 35 -4 35 -4 0 -8
-16 -8 -35z"/>
<path d="M3270 550 c0 -16 2 -30 4 -30 2 0 6 14 8 30 3 17 1 30 -4 30 -4 0 -8
-13 -8 -30z"/>
<path d="M4416 555 c-3 -9 -16 -20 -28 -25 -21 -9 -21 -10 6 -7 22 1 30 8 32
25 4 25 -1 29 -10 7z"/>
<path d="M3514 515 c-9 -34 -2 -40 13 -9 6 13 7 26 2 29 -4 3 -11 -6 -15 -20z"/>
<path d="M3690 530 l-35 -7 43 -2 c27 0 41 3 37 9 -3 6 -7 9 -8 9 -1 -1 -18
-5 -37 -9z"/>
<path d="M4059 529 c-10 -6 -7 -9 14 -9 29 0 35 5 14 13 -8 3 -20 1 -28 -4z"/>
<path d="M4190 531 c0 -5 7 -11 15 -15 8 -3 15 -1 15 3 0 5 -7 11 -15 15 -8 3
-15 1 -15 -3z"/>
<path d="M3858 523 c12 -2 32 -2 45 0 12 2 2 4 -23 4 -25 0 -35 -2 -22 -4z"/>
<path d="M4018 523 c7 -3 16 -2 19 1 4 3 -2 6 -13 5 -11 0 -14 -3 -6 -6z"/>
<path d="M4238 523 c6 -2 18 -2 25 0 6 3 1 5 -13 5 -14 0 -19 -2 -12 -5z"/>
<path d="M3273 392 c1 -19 5 -36 9 -38 10 -6 9 13 -2 46 -8 23 -8 22 -7 -8z"/>
<path d="M4087 354 c-22 -29 -14 -31 13 -4 10 10 16 21 12 24 -4 2 -15 -7 -25
-20z"/>
<path d="M4130 370 c0 -5 5 -10 11 -10 5 0 7 5 4 10 -3 6 -8 10 -11 10 -2 0
-4 -4 -4 -10z"/>
<path d="M4210 369 c0 -3 11 -6 25 -6 14 0 25 3 25 6 0 4 -11 7 -25 7 -14 0
-25 -3 -25 -7z"/>
<path d="M4324 369 c-3 -5 0 -8 8 -7 7 2 12 -5 12 -14 -2 -24 12 -23 19 1 5
21 -28 37 -39 20z"/>
<path d="M3546 338 c10 -21 21 -38 26 -38 4 0 8 -8 9 -17 0 -10 3 -13 5 -7 3
7 -7 29 -21 50 -36 53 -40 55 -19 12z"/>
<path d="M3965 251 c-3 -5 -19 -12 -35 -16 -17 -4 -30 -11 -30 -16 0 -5 17 -2
38 6 40 17 63 35 45 35 -7 0 -14 -4 -18 -9z"/>
<path d="M4245 210 c-40 -41 -28 -44 13 -3 19 18 30 33 25 33 -5 0 -22 -13
-38 -30z"/>
<path d="M3343 196 c12 -19 27 -37 34 -40 7 -3 0 13 -15 34 -33 48 -49 53 -19
6z"/>
<path d="M3704 216 c23 -18 46 -21 46 -5 0 6 -6 9 -12 6 -7 -2 -22 0 -33 5
-20 9 -20 9 -1 -6z"/>
<path d="M3768 203 c7 -3 16 -2 19 1 4 3 -2 6 -13 5 -11 0 -14 -3 -6 -6z"/>
<path d="M4110 100 c-8 -5 -12 -12 -9 -15 4 -3 12 1 19 10 14 17 11 19 -10 5z"/>
<path d="M4064 75 c-10 -8 -14 -14 -9 -15 15 0 40 18 34 24 -3 3 -14 -1 -25
-9z"/>
<path d="M3470 70 c0 -5 5 -10 10 -10 6 0 10 5 10 10 0 6 -4 10 -10 10 -5 0
-10 -4 -10 -10z"/>
<path d="M3535 40 c3 -5 8 -10 11 -10 2 0 4 5 4 10 0 6 -5 10 -11 10 -5 0 -7
-4 -4 -10z"/>
<path d="M3910 19 c0 -5 -5 -7 -12 -3 -7 4 -8 3 -4 -4 5 -9 13 -9 27 -2 23 13
24 20 4 20 -8 0 -15 -5 -15 -11z"/>
<path d="M3658 3 c7 -3 16 -2 19 1 4 3 -2 6 -13 5 -11 0 -14 -3 -6 -6z"/>
<path d="M3698 3 c6 -2 18 -2 25 0 6 3 1 5 -13 5 -14 0 -19 -2 -12 -5z"/>
</g>
</svg>
